<svg xmlns="http://www.w3.org/2000/svg" viewBox="0 0 2630.79 1695.32"><defs><style>.cls-1,.cls-5{fill:#f4f1ed;}.cls-2{fill:#1c0e0c;}.cls-3{fill:#efaf00;}.cls-10,.cls-3{stroke:#000;}.cls-10,.cls-3,.cls-4,.cls-5,.cls-7{stroke-linecap:round;stroke-linejoin:round;}.cls-10,.cls-3,.cls-4,.cls-5{stroke-width:6px;}.cls-4,.cls-7{fill:none;}.cls-4,.cls-5,.cls-7{stroke:#070707;}.cls-6{fill:#070707;}.cls-7{stroke-width:8px;}.cls-8{fill:#c5dcdd;}.cls-9{fill:#fff;}.cls-10{fill:#f46f40;}</style></defs><g id="Layer_2" data-name="Layer 2"><rect id="BACKGROUND" class="cls-1" x="-2742.7" y="-7525.2" width="9809.85" height="9381.84"/></g><g id="Layer_1" data-name="Layer 1"><g id="LEAVES"><path class="cls-2" d="M459.53,1101.79C551.9,1139.15,612,1189.41,651,1240l-6.49,56.72,24.33-31.4c60.68,94.61,40.32,184.36,40.32,184.36l-23.19-.14c-114.65-.68-212.15-84.84-228.39-198.33-.18-1.2-.34-2.4-.5-3.6l42.51-5.57-45.5-24.56v0C449.85,1153.19,459.53,1101.79,459.53,1101.79Z"/><path class="cls-3" d="M445.81,1104.25c92.38,37.36,152.47,87.62,191.51,138.26l-6.48,56.71,24.32-31.4c60.69,94.61,53.89,183.23,53.89,183.23l-35.64.11c-114.94.38-213.22-83.66-229.51-197.44-.17-1.21-.34-2.41-.5-3.61l42.52-5.57L440.41,1220v0C436.14,1155.65,445.81,1104.25,445.81,1104.25Z"/><line class="cls-4" x1="444.93" y1="1260.5" x2="591.15" y2="1333.42"/><line class="cls-5" x1="540.86" y1="1267.7" x2="537.34" y2="1151.48"/><path class="cls-4" d="M445.81,1104.25s88.25,205.78,263.24,346.8"/><path class="cls-3" d="M2215.07,590s-60.21-1.86-33.65,98.2-84.62,90.2-104.49,137.94c-10.62,25.53,45.21,150.81-50.43,195.12-78.62,36.43-163.33,74.08-184.85,155.92L1817.5,972s-18.45-93,64.62-114.13c124.55-31.73,58-107.91,92.09-152.31,37.45-48.7,95.83-16.86,119.73-47.62C2111.47,635.42,2135.16,550.63,2215.07,590Z"/><path class="cls-6" d="M2214.88,590V590a29.15,29.15,0,0,0-3.66.26c-9.16-.77-33.95-1.43-49.59,11.67-8.85,7.42-13.51,18.22-13.84,32.1-.69,28.94-2.87,48.36-12,62-9.41,14.11-25.82,21.57-54.89,24.95-28,3.25-49,13.7-61,30.21-11,15.19-14.19,35.58-9.34,59,4.35,21,6.85,52-5.93,80.85-13.94,31.42-42.71,53.3-85.52,65-23.18,6.35-42.37,15.94-57,28.5A96.74,96.74,0,0,0,1835.8,1020c-9.85,22.93-7.39,42.64-7.36,42.84l-.25,0-2.64-22.41a99,99,0,0,1,6.58-22.05,100.58,100.58,0,0,1,27.4-36.86c15.12-12.94,34.83-22.81,58.59-29.31,97.05-26.58,97.16-99.87,88.59-141.2-5.08-24.51-1.62-46,10-62.12,12.59-17.45,34.64-28.46,63.74-31.85,27.79-3.23,43.34-10.17,52-23.2,8.54-12.82,10.6-31.66,11.28-59.87.36-15.08,5.5-26.89,15.28-35.07,6-5,17.19-11.35,36.13-12.71a106.39,106.39,0,0,1,10.75-.22C2208.85,587.12,2211.82,588.44,2214.88,590Z"/><path class="cls-4" d="M688.65,1136.79s-125.74,6-143.48-112.37c-16.35-109.06,61.13-144.66,6.67-185.84s-87.49-73.17-62.43-126.18c23-48.71,9.3-79.7-25.24-70.4,0,0,40-53.49,96.08-10.43,52.25,40.09-7.86,114.45,61.1,115.36,67.3.89,117.78,25.52,107.76,106-3.84,30.76-26.2,74.09,10.24,120.26C790.36,1037.83,688.65,1136.79,688.65,1136.79Z"/><path class="cls-4" d="M462.84,640.66s100.95-45.81,79.7,66.47c-18.81,99.38,81.8,56.41,108.92,140.69,25.24,78.43-27.39,211.46,78.25,237.32"/><path class="cls-2" d="M2177.69,1053.83c-26.62,96-69.72,161.43-115.6,206H2005l34,20.6c-87.1,71-178.58,61-178.58,61l-12.73-117.5c28.07-94.37,109.77-137,184.84-155.91l10.37,41.61,19.22-48h0C2125.53,1050.06,2177.69,1053.83,2177.69,1053.83Z"/><path class="cls-5" d="M2173.69,1040.48c-26.62,96-69.73,161.44-115.6,206H2001l34,20.61c-87.1,71-175.92,74.35-175.92,74.35l-15.4-130.84c28.08-94.37,109.77-136.95,184.85-155.92l10.36,41.61,19.23-48h0C2121.52,1036.71,2173.69,1040.48,2173.69,1040.48Z"/><line class="cls-5" x1="1853.65" y1="1295.51" x2="2173.69" y2="1040.48"/><line class="cls-5" x1="2018.35" y1="1057.36" x2="1962.29" y2="1208.93"/><line class="cls-5" x1="2041.38" y1="1145.91" x2="2137.17" y2="1136.79"/><line class="cls-5" x1="1870.13" y1="1281.6" x2="2034.97" y2="1267.07"/></g><g id="FLAG"><polygon class="cls-2" points="617.98 323.75 978.53 323.75 978.53 148.42 617.98 148.42 664.69 236.09 617.98 323.75"/><polygon class="cls-5" points="629.32 311.74 989.88 311.74 989.88 136.41 629.32 136.41 676.03 224.08 629.32 311.74"/><line class="cls-7" x1="989.87" y1="136.41" x2="989.87" y2="851.34"/></g><g id="BIG_PACK" data-name="BIG PACK"><polygon class="cls-8" points="1724.94 391 1613.08 1341.42 991.33 1341.42 1103.18 391 1724.94 391"/><polygon class="cls-4" points="1859.05 1341.42 1591.5 1341.42 1704.92 377.65 1745.63 377.65 1859.05 1341.42"/><polygon class="cls-4" points="1704.92 377.65 1591.5 1341.42 969.74 1341.42 1083.17 377.65 1704.92 377.65"/><path class="cls-5" d="M1459,194.36h0a99.88,99.88,0,0,1,99.88,99.88v83.41a0,0,0,0,1,0,0H1359.09a0,0,0,0,1,0,0V294.24A99.88,99.88,0,0,1,1459,194.36Z"/><path class="cls-4" d="M1391.58,194.36h0a99.88,99.88,0,0,1,99.88,99.88v83.41a0,0,0,0,1,0,0H1291.7a0,0,0,0,1,0,0V294.24a99.88,99.88,0,0,1,99.88-99.88Z"/><path class="cls-9" d="M1625.56,671.89h-91.07l11.6-132.65c2.2-25.15,24.37-45.54,49.53-45.54h0c25.15,0,43.75,20.39,41.55,45.54Z"/><path class="cls-4" d="M1617.56,663.88h-91.08l11.61-132.65c2.2-25.15,24.37-45.54,49.52-45.54h0c25.15,0,43.75,20.39,41.55,45.54Z"/><ellipse class="cls-4" cx="1584.37" cy="522.75" rx="10.27" ry="9.41" transform="translate(78.36 1240.68) rotate(-43.75)"/><path class="cls-4" d="M1584.69,519.05l13-148.25a20.17,20.17,0,0,1,20.1-18.42h0a20.17,20.17,0,0,1,20.18,20.17v5.11"/><path class="cls-2" d="M1578.67,616a11.5,11.5,0,0,0,6.17-3.06,8.53,8.53,0,0,0,2.55-5.37,6,6,0,0,0-1.58-5.09,14.77,14.77,0,0,0-5.69-3l-4.68-1.4a42.41,42.41,0,0,1-8.2-3.13,12.57,12.57,0,0,1-5.1-4.89,13.69,13.69,0,0,1-1.4-8.17,15.87,15.87,0,0,1,5.07-10.67q4.51-4.17,12.4-4.84h4.8a22.14,22.14,0,0,1,6.8,1.66,12.05,12.05,0,0,1,4.72,3.78,14.36,14.36,0,0,1,2.28,4,8.67,8.67,0,0,1,.6,3.74,4.92,4.92,0,0,1-1.67,3.27,5,5,0,0,1-3.47,1.38c-2.47,0-4-1.33-4.45-4a7.64,7.64,0,0,0-5.47-6.28l-4.79-.15a14.75,14.75,0,0,0-5.17,2.5,6.42,6.42,0,0,0-2.19,4.69,5.44,5.44,0,0,0,1.27,4.52,13.67,13.67,0,0,0,4.83,2.78l4.68,1.4q4.57,1.29,7.26,2.35A13.6,13.6,0,0,1,1593,595a12.64,12.64,0,0,1,3.18,5,15.15,15.15,0,0,1,.71,6.34,18,18,0,0,1-2.73,8.08,18.21,18.21,0,0,1-6.5,6.14,22.72,22.72,0,0,1-9.59,2.84l-4.81.08a22.58,22.58,0,0,1-7.55-2.08,16.13,16.13,0,0,1-5.18-4,14.55,14.55,0,0,1-2.84-4.92,12.48,12.48,0,0,1-.62-5,5,5,0,0,1,1.7-3.27,5.19,5.19,0,0,1,3.67-1.46,4.66,4.66,0,0,1,2.8.8,3.57,3.57,0,0,1,1.43,2.23,43.77,43.77,0,0,0,1.37,4.75,8.08,8.08,0,0,0,2,3,9.28,9.28,0,0,0,3.89,2.08Z"/><path class="cls-2" d="M1575.17,629H1575a2,2,0,0,1-1.82-2.17l5.73-65.53a2,2,0,1,1,4,.35l-5.73,65.53A2,2,0,0,1,1575.17,629Z"/></g><g id="PRESENT_BOX" data-name="PRESENT BOX"><path class="cls-2" d="M958.54,853.87h-72.6s-69.75-61.77-100.23-98.2a138.63,138.63,0,0,1-11.38-15.85c-14.14-22.93,2.2-52.5,29.14-52.65h.78C877.94,687.17,958.58,820.66,958.54,853.87Z"/><path class="cls-1" d="M998.57,853.87H947.49S898.43,810.42,877,784.78a96,96,0,0,1-8-11.15,24.28,24.28,0,0,1,20.5-37H890C941.86,736.59,998.6,830.51,998.57,853.87Z"/><path class="cls-3" d="M846.72,617.43c122.2-1.28,164.71,173.35,162,236.44H958.54c0-33.21-80.6-166.7-154.29-166.7-26.14,0-41.54,23.29-33.66,44.38C770.59,731.55,719.94,618.76,846.72,617.43Z"/><path class="cls-3" d="M1316.19,824.36c10.25-24.56-3.55-52.86-29.11-60.57-118.52-35.75-239.7,90.08-239.7,90.08H969.74s110.1-183.31,293.4-156.06C1303.27,703.77,1356,742.42,1316.19,824.36Z"/><path class="cls-2" d="M1316,824.78c-5.51,12.88-12.25,24.94-17,29.09h-67.39s16.14-5.46,31.72-29.09c18.93-28.69,10.17-64.2-15.78-66.63,13.32.41,26.58,1.73,39.56,5.64C1312.78,771.55,1326.6,800.12,1316,824.78Z"/><rect class="cls-3" x="782.73" y="851.87" width="630.94" height="630.94" rx="43.27"/><rect class="cls-5" x="688.65" y="851.87" width="613.9" height="630.94" rx="43.27"/><path class="cls-1" d="M950.64,928.46a39.39,39.39,0,0,0-67.25,27.85v114.76h78.79V956.31A39.24,39.24,0,0,0,950.64,928.46Zm-27.85,29a8.51,8.51,0,1,1,8.5-8.51A8.51,8.51,0,0,1,922.79,957.48Z"/><path class="cls-4" d="M945.3,921.12A39.39,39.39,0,0,0,878.05,949v114.76h78.79V949A39.24,39.24,0,0,0,945.3,921.12Zm-27.85,29a8.5,8.5,0,1,1,8.5-8.5A8.51,8.51,0,0,1,917.45,950.14Z"/><path class="cls-4" d="M917.45,938.43V849.9a19.69,19.69,0,0,1,19.69-19.7h0a19.7,19.7,0,0,1,19.7,19.7v2"/><path class="cls-2" d="M933.46,1008.41a12.15,12.15,0,0,0-3.12-4.3,13.58,13.58,0,0,0-4.3-2.66c-1.61-.61-3.77-1.28-6.47-2l-.19,0V985.81h.19a7.42,7.42,0,0,1,5.2,5.43c.64,2.32,2,3.47,4.16,3.47a4,4,0,0,0,2.9-1.19,3.89,3.89,0,0,0,1.19-2.83,8,8,0,0,0-.8-3.24A14.2,14.2,0,0,0,930,984a12,12,0,0,0-4.38-3.27,20.32,20.32,0,0,0-6-1.44h-.19v-4.15a2,2,0,0,0-4,0v4.16q-6.75.59-10.32,4.18a12.53,12.53,0,0,0-3.59,9.23,12.41,12.41,0,0,0,1.84,7.06,12.22,12.22,0,0,0,4.78,4.24,39.94,39.94,0,0,0,7.29,2.7v15.21a8.66,8.66,0,0,1-3.48-1.79,7.9,7.9,0,0,1-2-2.6,40.8,40.8,0,0,1-1.54-4.11,3.52,3.52,0,0,0-1.41-1.93,4.34,4.34,0,0,0-2.49-.69,4.07,4.07,0,0,0-3.05,1.26,4,4,0,0,0-1.23,2.83,11.27,11.27,0,0,0,.91,4.34,14.7,14.7,0,0,0,2.83,4.26,15.82,15.82,0,0,0,4.78,3.41,20.82,20.82,0,0,0,6.66,1.8v3.13a2,2,0,1,0,4,0v-3.19h.19a18.24,18.24,0,0,0,8.08-2.46,13.78,13.78,0,0,0,5.16-5.32,14.43,14.43,0,0,0,1.75-7A13.55,13.55,0,0,0,933.46,1008.41ZM911,995.81a6.08,6.08,0,0,1,.1-8,11.19,11.19,0,0,1,4.25-2.15V998.2A13,13,0,0,1,911,995.81Zm13.64,23.8a9,9,0,0,1-5.1,2.66h-.19v-14.38l.19,0a14.23,14.23,0,0,1,5.16,2.64,5.6,5.6,0,0,1,1.75,4.4A6.69,6.69,0,0,1,924.67,1019.61Z"/></g><g id="ABSTRACT_ELEMENTS" data-name="ABSTRACT ELEMENTS"><circle class="cls-5" cx="650.4" cy="662.33" r="31.58"/><circle class="cls-5" cx="1818.42" cy="1437.11" r="31.58"/><circle class="cls-5" cx="1915.64" cy="777.77" r="13.34"/><circle class="cls-5" cx="1863.46" cy="1484.81" r="10.01"/><circle class="cls-8" cx="643.9" cy="1170.64" r="10.01"/></g><g id="BOX_SHOE" data-name="BOX &amp; SHOE"><g id="BOX"><rect class="cls-5" x="1049" y="1323.88" width="680.45" height="226.45"/><rect class="cls-5" x="965.7" y="1323.88" width="636.4" height="226.45"/><rect class="cls-2" x="963.96" y="1259.06" width="767.74" height="80.17"/><rect class="cls-5" x="1020.75" y="1243.71" width="736.95" height="80.17"/><rect class="cls-5" x="939.27" y="1243.71" width="689.24" height="80.17"/></g><g id="SHOE"><path class="cls-5" d="M1649.35,1183.43c-.47,5.5-10.38,31.72-10.38,31.72L1132.54,1198v-28.27c0-47.38,16.1-88.3,24.63-106.07,13.15-27.44,31.36-20.6,31.36-20.6s49.53,48.41,105.08,48.41c10.71,0,18.39-5.67,23.86-13.92a65.6,65.6,0,0,0,7.59-16.48,131.93,131.93,0,0,0,4.86-23.21,20.87,20.87,0,0,1,30.22-16c21.81,11.21,48.29,36.3,119.16,74.6q5.34,2.9,11,5.87C1576.56,1147.67,1648.43,1130.79,1649.35,1183.43Z"/><path class="cls-5" d="M1592.4,1240.2c14.67,0,32.55-6.64,42.16-17.38s17.68-30.34,13.17-51.4h-.4c-4.84,26-28.16,38.75-45.7,38.75l-439.06-12.88c-13.62,0-25.27-9.4-30-22.71v29.49c0,20,14.47,36.13,32.33,36.13Z"/><path class="cls-10" d="M1317.48,1077.55c-3.85,15.37-28.81,31.74-101.23,10.26-60.31-17.89-83.71,57.27-83.71,86.77v-4.86c0-47.38,16.1-88.3,24.63-106.07,13.15-27.44,31.36-20.6,31.36-20.6s49.53,48.41,105.08,48.41c10.71,0,18.39-5.67,23.86-13.92Z"/><path class="cls-5" d="M1498.59,1106.55c-109.68-37.51-164.57-54.49-173.53-45.49a131.93,131.93,0,0,0,4.86-23.21,20.87,20.87,0,0,1,30.22-16C1382,1033.1,1418.41,1066.44,1498.59,1106.55Z"/><path class="cls-4" d="M1386.6,1069.06l14.22-21.62a11.14,11.14,0,0,1,15.9-2.87h0a11.13,11.13,0,0,1,3.19,14.35l-1.89,3.46"/><path class="cls-4" d="M1419.21,1078.5l10.07-15.78a9.73,9.73,0,0,1,13.89-2.51h0a9.73,9.73,0,0,1,2.78,12.54l-1.66,3"/><path class="cls-4" d="M1469.23,1090.77a10.31,10.31,0,0,0-2.94-13.27h0a10.31,10.31,0,0,0-14.7,2.66l-6.37,8.35"/><path class="cls-10" d="M1498.39,1106.45a139.81,139.81,0,0,0-109.83,100.21l-20.21-.68a159.68,159.68,0,0,1,104.1-113.22q3.36,1.85,6.85,3.73,5.34,2.9,11,5.87C1493,1103.79,1495.71,1105.14,1498.39,1106.45Z"/><path class="cls-10" d="M1548.48,1125.86v2.65A132.49,132.49,0,0,0,1427.2,1208l-21-.72A152.65,152.65,0,0,1,1512.8,1113,357.53,357.53,0,0,0,1548.48,1125.86Z"/></g></g></g></svg>